<svg viewBox="0 0 800 800" xmlns="http://www.w3.org/2000/svg"><path d="M154.523236061891,238.55189002409998 L107.20668982929783,265.61213697429156 M154.523236061891,238.55189002409998 L154.03796261276133,136.84917941981678 M107.20668982929783,265.61213697429156 L106.92741089937044,214.77891781270847 M154.03796261276133,136.84917941981678 L106.64769924241978,163.8669354317947 M106.92741089937044,214.77891781270847 L106.64769924241978,163.8669354317947 M106.92741089937044,214.77891781270847 L110.08674632508155,212.97491908452702 M173.3303552068059,271.1267759270941 L154.523236061891,238.55189002409998 M173.3303552068059,271.1267759270941 L126.02939584570697,298.2140201306447 M107.20668982929783,265.61213697429156 L126.02939584570697,298.2140201306447 M198.2874071594823,285.56772096454205 L173.3303552068059,271.1267759270941 M198.2874071594823,285.56772096454205 L216.93645670160552,274.64218953786263 M172.6782696328241,125.8128184519694 L154.03796261276133,136.84917941981678 M216.93645670160552,274.64218953786263 L216.54737857567568,172.88282412201625 M197.6902903330658,140.22138920300625 L172.6782696328241,125.8128184519694 M197.6902903330658,140.22138920300625 L216.54737857567568,172.88282412201625 M185.4473098922537,194.8593632365379 L183.2062015554634,193.88192243448265 M183.2062015554634,193.88192243448265 L181.098287641995,193.59498829769825 M181.098287641995,193.59498829769825 L179.2460991693221,194.01514804233497 M179.2460991693221,194.01514804233497 L177.7571976047525,195.11784238233898 M177.7571976047525,195.11784238233898 L176.7180606049874,196.83889144937586 M176.7180606049874,196.83889144937586 L176.1889857572757,199.07820189991753 M176.1889857572757,199.07820189991753 L176.200648925977,201.7056228659365 M176.200648925977,201.7056228659365 L176.7523090716358,204.5684950134357 M176.7523090716358,204.5684950134357 L177.81186579724096,207.50051539261548 M177.81186579724096,207.50051539261548 L179.31776294146823,210.33140097149538 M179.31776294146823,210.33140097149538 L181.18251982771625,212.89673317281904 M181.18251982771625,212.89673317281904 L183.29788933557796,215.04754040174015 M183.29788933557796,215.04754040174015 L185.54100178809796,216.65885887501432 M185.54100178809796,216.65885887501432 L187.7815705287666,217.63703262098431 M187.7815705287666,217.63703262098431 L189.88942619101016,217.92515139639784 M189.88942619101016,217.92515139639784 L191.74205109682532,217.5063565899039 M191.74205109682532,217.5063565899039 L193.23178380086756,216.40489481208544 M193.23178380086756,216.40489481208544 L194.2719562423456,214.6846635591587 M194.2719562423456,214.6846635591587 L194.8020336302081,212.44556882537978 M194.8020336302081,212.44556882537978 L194.7911104226999,209.81771205534082 M194.7911104226999,209.81771205534082 L194.23975814108258,206.9538524216377 M194.23975814108258,206.9538524216377 L193.18000666355778,204.0205190996057 M193.18000666355778,204.0205190996057 L191.67345676348984,201.18829589846484 M191.67345676348984,201.18829589846484 L189.8077386672026,198.62190782906367 M189.8077386672026,198.62190782906367 L187.6913196708909,196.47056837067686 M187.6913196708909,196.47056837067686 L185.4473098922537,194.8593632365379 M107.20668982929783,265.61213697429156 L91.785563351625,275.65975077108067 M91.785563351625,275.65975077108067 L78.75269985469083,286.7787258694736 M78.75269985469083,286.7787258694736 L68.33248362875827,298.7807924148131 M68.33248362875827,298.7807924148131 L60.70546941727662,311.46232176070635 M60.70546941727662,311.46232176070635 L56.00503329096466,324.6076064960421 M56.00503329096466,324.6076064960421 L54.31500572498436,337.9925660502122 M54.31500572498436,337.9925660502122 L55.66800386887144,351.3884822606999 M55.66800386887144,351.3884822606999 L60.04454804385222,364.565870023688 M60.04454804385222,364.565870023688 L67.37322504112348,377.2984576296148 M67.37322504112348,377.2984576296148 L77.53158128903414,389.3670850806457 M77.53158128903414,389.3670850806457 L90.34810253221656,400.5635710679271 M90.34810253221656,400.5635710679271 L105.60496484131323,410.6943467175681 M105.60496484131323,410.6943467175681 L105.04099579039132,308.7225144013184 M106.64769924241978,163.8669354317947 L91.20249909545328,173.89878976787654 M91.20249909545328,173.89878976787654 L78.14923016828322,185.00033614078188 M78.14923016828322,185.00033614078188 L67.71263014448135,196.9836028733043 M67.71263014448135,196.9836028733043 L60.07354101650105,209.64528292762137 M60.07354101650105,209.64528292762137 L55.36555441710226,222.77000856800115 M55.36555441710226,222.77000856800115 L53.672640573279295,236.1340509894648 M53.672640573279295,236.1340509894648 L55.027477467488154,249.5090499289352 M55.027477467488154,249.5090499289352 L59.410565401919825,262.6658782232084 M59.410565401919825,262.6658782232084 L66.7503899822184,275.3786159594051 M66.7503899822184,275.3786159594051 L76.92431613530317,287.4284428125933 M76.92431613530317,287.4284428125933 L89.76057039110549,298.60749916251046 M89.76057039110549,298.60749916251046 L105.04099579039132,308.7225144013184 M106.92741089937044,214.77891781270847 L91.80247451670954,215.35758727581444 M91.80247451670954,215.35758727581444 L78.73996655814955,217.4998432007307 M78.73996655814955,217.4998432007307 L68.60080339490997,221.37233282913118 M68.60080339490997,221.37233282913118 L61.21971863810893,227.13736616382675 M61.21971863810893,227.13736616382675 L56.73430054354094,234.2705204289835 M56.73430054354094,234.2705204289835 L55.16630093931593,238.98150395946936 M55.16630093931593,238.98150395946936 L54.19535705092454,244.29011900995505 M54.19535705092454,244.29011900995505 L53.80399138071954,254.7003464681277 M53.80399138071954,254.7003464681277 L54.667693396163315,266.26047497175836 M54.667693396163315,266.26047497175836 L56.097039539274874,277.5585230002037 M56.097039539274874,277.5585230002037 L57.54586931824406,288.1169202217317 M57.54586931824406,288.1169202217317 L58.67547944398632,297.3829103812325 M58.67547944398632,297.3829103812325 L59.3828010983695,305.2048538046949 M59.3828010983695,305.2048538046949 L59.71114712327591,312.3199430520086 M59.71114712327591,312.3199430520086 L59.62847449980387,318.54977498551824 M59.62847449980387,318.54977498551824 L59.1468098361899,323.71243071008996 M59.1468098361899,323.71243071008996 L58.32429275856953,327.6079872587569 M58.32429275856953,327.6079872587569 L57.27237287958047,330.0300093965953 M57.27237287958047,330.0300093965953 L56.1560004722117,330.8219427445963 M56.1560004722117,330.8219427445963 L55.16913013790878,329.95772023577945 M55.16913013790878,329.95772023577945 L54.4856608479235,327.58553062593234 M54.4856608479235,327.58553062593234 L54.219102297349195,322.9749173855431 M54.219102297349195,322.9749173855431 L54.65362201337348,317.0390115469299 M54.65362201337348,317.0390115469299 L56.705170884202175,305.99381445032265 M56.705170884202175,305.99381445032265 L60.220182859553404,293.8757668815006 M60.220182859553404,293.8757668815006 L66.6769653969892,277.3494755559195 M66.6769653969892,277.3494755559195 L76.10102596003321,258.5440754903963 M76.10102596003321,258.5440754903963 L88.7748304589453,238.19018545954606 M88.7748304589453,238.19018545954606 L97.46833801251069,226.29949778521927 M97.46833801251069,226.29949778521927 L106.92741089937044,214.77891781270847 M172.6782696328241,125.8128184519694 L125.2719988116192,152.83936053502694 M106.64769924241978,163.8669354317947 L125.2719988116192,152.83936053502694 M198.2874071594823,285.56772096454205 L150.98622382538028,312.6789169744709 M150.98622382538028,312.6789169744709 L137.96647233579142,321.5628114888848 M137.96647233579142,321.5628114888848 L127.80145730427944,331.6120138135061 M127.80145730427944,331.6120138135061 L120.80180960626012,342.5230103277068 M120.80180960626012,342.5230103277068 L117.18306335047788,353.9656714182975 M117.18306335047788,353.9656714182975 L117.05857036695181,365.59301936659915 M117.05857036695181,365.59301936659915 L120.43584618058554,377.05179375945204 M120.43584618058554,377.05179375945204 L127.21571363646484,387.9931028543624 M127.21571363646484,387.9931028543624 L137.19502222395,398.08314061942156 M137.19502222395,398.08314061942156 L150.07245765789733,407.0134749791649 M150.07245765789733,407.0134749791649 L528.1792042465177,626.7982099870749 M528.1792042465177,626.7982099870749 L543.7541316236161,634.3961709198393 M543.7541316236161,634.3961709198393 L561.362894816353,640.3087398108638 M561.362894816353,640.3087398108638 L580.468568965927,644.3543962059837 M580.468568965927,644.3543962059837 L600.4877687051586,646.4088160957144 M600.4877687051586,646.4088160957144 L620.8086902983318,646.4088090538047 M620.8086902983318,646.4088090538047 L640.8101816060818,644.3544032470181 M640.8101816060818,644.3544032470181 L659.8809296386808,640.3087362912082 M659.8809296386808,640.3087362912082 L677.4386585939728,634.3961674014429 M677.4386585939728,634.3961674014429 L692.947998282006,626.7982099870749 M692.947998282006,626.7982099870749 L740.2495371930354,599.1642686270346 M765.7101941221354,613.8966155415517 L740.2495371930354,599.1642686270346 M718.4088504845496,641.5552376416175 L765.7101941221354,613.8966155415517 M502.8457270688896,641.5552376416175 L519.2945786054415,649.848266541336 M519.2945786054415,649.848266541336 L537.6090879930132,656.6979518498507 M537.6090879930132,656.6979518498507 L557.4149922065728,661.9630197049132 M557.4149922065728,661.9630197049132 L578.3067751575851,665.5347302633604 M578.3067751575851,665.5347302633604 L599.856135710504,667.3392351907686 M599.856135710504,667.3392351907686 L621.6210080996971,667.339242241598 M621.6210080996971,667.339242241598 L643.1548051681697,665.5347302633604 M643.1548051681697,665.5347302633604 L664.015734842733,661.9630338019887 M664.015734842733,661.9630338019887 L683.776193724018,656.6979659424384 M683.776193724018,656.6979659424384 L702.0315861042036,649.8482630196485 M702.0315861042036,649.8482630196485 L718.4088504845496,641.5552376416175 M124.7398214368776,421.5747774271961 L502.8457270688896,641.5552376416175 M126.02939584570697,298.2140201306447 L111.83344589777198,307.5872148783739 M111.83344589777198,307.5872148783739 L100.0770815834702,318.0271914317703 M100.0770815834702,318.0271914317703 L91.00104276867086,329.3232531113191 M91.00104276867086,329.3232531113191 L84.79233546667331,341.24694703940287 M84.79233546667331,341.24694703940287 L81.58023330655504,353.5566503674112 M81.58023330655504,353.5566503674112 L81.43347846724197,366.0023271318186 M81.43347846724197,366.0023271318186 L84.35849485466497,378.3306415764387 M84.35849485466497,378.3306415764387 L90.29911962750111,390.29007712882975 M90.29911962750111,390.29007712882975 L99.13731921126896,401.63608194211224 M99.13731921126896,401.63608194211224 L110.69547136990457,412.13616741779975 M110.69547136990457,412.13616741779975 L124.7398214368776,421.5747774271961 M105.60496484131323,410.6943467175681 L124.7398214368776,421.5747774271961 M169.61935000576463,301.7623158747299 L150.98622382538028,312.6789169744709 M216.93645670160552,274.64218953786263 L169.61935000576463,301.7623158747299 M169.61935000576463,301.7623158747299 L169.3881303984983,250.90083422332532 M216.54737857567568,172.88282412201625 L169.15655213248715,199.96045824549893 M169.3881303984983,250.90083422332532 L169.15655213248715,199.96045824549893 M169.3881303984983,250.90083422332532 L172.54750600958602,249.09283893303962 M197.6902903330658,140.22138920300625 L150.28379404756168,167.2718823634517 M150.28379404756168,167.2718823634517 L137.23499255991442,176.1359071540545 M137.23499255991442,176.1359071540545 L127.04721430659646,186.16264628136327 M127.04721430659646,186.16264628136327 L120.03178971895318,197.04926866262312 M120.03178971895318,197.04926866262312 L116.40474478840736,208.4663852135749 M116.40474478840736,208.4663852135749 L116.27969868371389,220.0677944515538 M116.27969868371389,220.0677944515538 L119.66420021572867,231.50102406719867 M119.66420021572867,231.50102406719867 L126.45886807113396,242.41795851703205 M126.45886807113396,242.41795851703205 L136.46011474591285,252.48553240537535 M136.46011474591285,252.48553240537535 L149.36596782145622,261.39599626127387 M149.36596782145622,261.39599626127387 L528.313896304096,480.6950940385875 M528.313896304096,480.6950940385875 L543.92370794348,488.27638321632924 M543.92370794348,488.27638321632924 L561.5719130993243,494.17598390550415 M561.5719130993243,494.17598390550415 L580.7203800452008,498.21276957200473 M580.7203800452008,498.21276957200473 L600.7844102996336,500.2626856745037 M600.7844102996336,500.2626856745037 L621.1508221555345,500.2626786480306 M621.1508221555345,500.2626786480306 L641.1970645540265,498.21277659760256 M641.1970645540265,498.21277659760256 L660.310448870152,494.1759803935669 M660.310448870152,494.1759803935669 L677.9073911059553,488.27637970565115 M677.9073911059553,488.27637970565115 L693.4513212340089,480.69509403858757 M693.4513212340089,480.69509403858757 L740.8581754301708,453.12185397981176 M766.3760444459901,467.82182666640773 L740.8581754301708,453.12185397981176 M718.9693868365704,495.4197483608373 L766.3760444459901,467.82182666640773 M502.9237764343608,495.4197483608373 L519.4094737122559,503.69459728635775 M519.4094737122559,503.69459728635775 L537.7650184690173,510.5292737261004 M537.7650184690173,510.5292737261004 L557.6153058208383,515.7828091985309 M557.6153058208383,515.7828091985309 L578.5539057590497,519.3466985653581 M578.5539057590497,519.3466985653581 L600.1515506716472,521.1472527141874 M600.1515506716472,521.1472527141874 L621.9651766579356,521.1472597495806 M621.9651766579356,521.1472597495806 L643.5471882579218,519.3466985653581 M643.5471882579218,519.3466985653581 L664.4547966107899,515.7828232647337 M664.4547966107899,515.7828232647337 L684.2594348555498,510.5292877878152 M684.2594348555498,510.5292877878152 L702.5555975621157,503.69459377238843 M702.5555975621157,503.69459377238843 L718.9693868365704,495.4197483608373 M123.97669453926522,275.92492209145047 L502.9237764343608,495.4197483608373 M125.2719988116192,152.83936053502694 L111.04437883031324,162.1915731790477 M111.04437883031324,162.1915731790477 L99.26170648103749,172.60819358931178 M99.26170648103749,172.60819358931178 L90.16526339313606,183.87900049498663 M90.16526339313606,183.87900049498663 L83.9424808631403,195.77605514819055 M83.9424808631403,195.77605514819055 L80.72293184712595,208.0582769543343 M80.72293184712595,208.0582769543343 L80.5755249193245,220.47618945100055 M80.5755249193245,220.47618945100055 L83.50671260784497,232.77702207929048 M83.50671260784497,232.77702207929048 L89.4602214076898,244.70981773135549 M89.4602214076898,244.70981773135549 L98.3177684920447,256.030566939917 M98.3177684920447,256.030566939917 L109.90134804903056,266.50729528061856 M109.90134804903056,266.50729528061856 L123.97669453926522,275.92492209145047 M169.15655213248715,199.96045824549893 L150.28379404756168,167.2718823634517 M150.7231769693404,214.7022054514333 L148.4822514649727,213.72328608120426 M148.4822514649727,213.72328608120426 L146.3748464270313,213.43515367833777 M146.3748464270313,213.43515367833777 L144.5234632465062,213.85446502339173 M144.5234632465062,213.85446502339173 L143.0356165175461,214.95670997956276 M143.0356165175461,214.95670997956276 L141.99772251591168,216.67773467462078 M141.99772251591168,216.67773467462078 L141.47000652728195,218.91744706779153 M141.47000652728195,218.91744706779153 L141.4830654091043,221.5456728792988 M141.4830654091043,221.5456728792988 L142.03607700918872,224.4097060009978 M142.03607700918872,224.4097060009978 L143.0968624263768,227.34317606513952 M143.0968624263768,227.34317606513952 L144.60379415711574,230.17571590394613 M144.60379415711574,230.17571590394613 L146.46933147528847,232.74281092050308 M146.46933147528847,232.74281092050308 L148.58518197696588,234.89538722810778 M148.58518197696588,234.89538722810778 L150.82844808254941,236.5083783047495 M150.82844808254941,236.5083783047495 L153.0688342225131,237.48803100314967 M153.0688342225131,237.48803100314967 L155.1761816233094,237.77734909508735 M155.1761816233094,237.77734909508735 L157.0280020927339,237.35940416414968 M157.0280020927339,237.35940416414968 L158.51668086256703,236.25839333355702 M158.51668086256703,236.25839333355702 L159.55561104645426,234.53818774526047 M159.55561104645426,234.53818774526047 L160.0843299852674,232.29869179463543 M160.0843299852674,232.29869179463543 L160.0720110502249,229.67003017174562 M160.0720110502249,229.67003017174562 L159.51930687862506,226.80500882502128 M159.51930687862506,226.80500882502128 L158.45832595260237,223.87022451701114 M158.45832595260237,223.87022451701114 L156.9507405611477,221.03634549077555 M156.9507405611477,221.03634549077555 L155.08424118740015,218.46819313538916 M155.08424118740015,218.46819313538916 L152.96734060477002,216.31508355889866 M152.96734060477002,216.31508355889866 L150.7231769693404,214.7022054514333 M150.7231769693404,214.7022054514333 L185.4473098922537,194.8593632365379 M105.60496484131323,410.6943467175681 L483.83607791933434,630.7493425952903 M105.04099579039132,308.7225144013184 L483.8609284576953,528.4375695933835 M483.83607791933434,630.7493425952903 L483.8609284576953,528.4375695933835 M105.04099579039132,308.7225144013184 L123.97669453926522,275.92492209145047 M110.08674632508155,212.97491908452702 L110.82494797086298,205.34050227880303 M110.82494797086298,205.34050227880303 L113.09113177269921,198.99138512248524 M113.09113177269921,198.99138512248524 L116.77243546711014,194.24628386594978 M116.77243546711014,194.24628386594978 L121.6850075220541,191.3438721717107 M121.6850075220541,191.3438721717107 L127.58313088474927,190.43070976573202 M127.58313088474927,190.43070976573202 L134.17126973185088,191.55359004555322 M134.17126973185088,191.55359004555322 L141.1190256052363,194.65711406802302 M141.1190256052363,194.65711406802302 L54.19535705092454,244.29011900995505 M141.1190256052363,194.65711406802302 L148.0775664429671,199.5861941873368 M148.0775664429671,199.5861941873368 L154.6972640012275,206.09375971361578 M154.6972640012275,206.09375971361578 L160.6454220403195,213.8531587447638 M160.6454220403195,213.8531587447638 L165.6229626984741,222.47452927035076 M165.6229626984741,222.47452927035076 L169.37976549801232,231.52459140522114 M169.37976549801232,231.52459140522114 L171.72716214804728,240.5484920860058 M171.72716214804728,240.5484920860058 L172.54750600958602,249.09283893303962 M172.54750600958602,249.09283893303962 L171.80013055127466,256.7286647406493 M171.80013055127466,256.7286647406493 L169.52314811137217,263.0729504725569 M169.52314811137217,263.0729504725569 L165.83155980744766,267.8079368349339 M165.83155980744766,267.8079368349339 L160.9112541637259,270.69695356289316 M160.9112541637259,270.69695356289316 L155.0094799359694,271.5960939106306 M155.0094799359694,271.5960939106306 L148.42249605836602,270.46134177133985 M148.42249605836602,270.46134177133985 L141.48047224485288,267.3504474164628 M141.48047224485288,267.3504474164628 L54.65362201337348,317.0390115469299 M141.48047224485288,267.3504474164628 L134.5311052534159,262.4199583008617 M134.5311052534159,262.4199583008617 L127.92220629823021,255.9172241856761 M127.92220629823021,255.9172241856761 L121.9843328976537,248.16794004245594 M121.9843328976537,248.16794004245594 L117.01452580883307,239.55996450531273 M117.01452580883307,239.55996450531273 L113.26137388391481,230.52392442555993 M113.26137388391481,230.52392442555993 L110.91282227523988,221.51189562700844 M110.91282227523988,221.51189562700844 L110.08674632508155,212.97491908452702 M169.61935000576463,301.7623158747299 L158.49892015795166,309.51988669423855 M158.49892015795166,309.51988669423855 L150.2022948667369,318.37493692574844 M150.2022948667369,318.37493692574844 L145.05001260288125,327.9886443927998 M145.05001260288125,327.9886443927998 L143.24262879105896,337.9925660502122 M143.24262879105896,337.9925660502122 L144.85261648240865,348.0025995810083 M144.85261648240865,348.0025995810083 L149.8211368418709,357.63372203483874 M149.8211368418709,357.63372203483874 L157.95987421029793,366.5148391306284 M157.95987421029793,366.5148391306284 L168.9577703798325,374.3031538279462 M168.9577703798325,374.3031538279462 L150.07245765789733,407.0134749791649 M168.9577703798325,374.3031538279462 L547.1909881736894,593.868834282692 M547.1909881736894,593.868834282692 L528.1792042465177,626.7982099870749 M547.1909881736894,593.868834282692 L560.7902708709034,600.3492506007887 M560.7902708709034,600.3492506007887 L576.3036589909993,605.1662867968319 M576.3036589909993,605.1662867968319 L593.1332014604573,608.133290898856 M593.1332014604573,608.133290898856 L610.6295528894782,609.1352484208988 M610.6295528894782,609.1352484208988 L628.1172533748548,608.133294415167 M628.1172533748548,608.133294415167 L644.9211606140724,605.1662832811527 M644.9211606140724,605.1662832811527 L660.3929230625944,600.3492506007887 M660.3929230625944,600.3492506007887 L673.9362143548343,593.8688342826922 M673.9362143548343,593.8688342826922 L692.947998282006,626.7982099870749 M721.2536547244847,566.2624350568977 L740.2495371930354,599.1642686270346 M673.9362143548343,593.8688342826922 L721.2536547244847,566.2624350568977 M784.9267273284952,603.0812410356115 L765.7101941221354,613.8966155415517 M785.4229054652784,500.8119576765181 L784.9267273284952,603.0812410356115 M785.4229054652784,500.8119576765181 L766.3760444459901,467.82182666640773 M721.6497116954213,464.04980640012644 L721.2536547244847,566.2624350568977 M721.6497116954213,464.04980640012644 L740.8581754301708,453.12185397981176 M753.3430859342718,522.6248325946901 L751.053918900846,521.6228309352124 M751.053918900846,521.6228309352124 L748.8952451103432,521.3159441979586 M748.8952451103432,521.3159441979586 L746.9925470714869,521.721917943769 M746.9925470714869,521.721917943769 L745.4563205024433,522.8170147291903 M745.4563205024433,522.8170147291903 L744.3757922198625,524.5374942279493 M744.3757922198625,524.5374942279493 L743.8136626932683,526.7832943054989 M743.8136626932683,526.7832943054989 L743.8025261932927,529.4238860629166 M743.8025261932927,529.4238860629166 L744.3429641383794,532.3058447262762 M744.3429641383794,532.3058447262762 L745.4035263631949,535.2617589879176 M745.4035263631949,535.2617589879176 L746.922597959783,538.1199590865526 M746.922597959783,538.1199590865526 L748.811933191178,540.7144410132366 M748.811933191178,540.7144410132366 L750.9618595283841,542.8945416989363 M750.9618595283841,542.8945416989363 L753.2475013205978,544.5335961614185 M753.2475013205978,544.5335961614185 L755.5361030500487,545.536337022447 M755.5361030500487,545.536337022447 L757.6947059975447,545.8444257393554 M757.6947059975447,545.8444257393554 L759.5978438783518,545.4398413833047 M759.5978438783518,545.4398413833047 L761.1349202153391,544.3460031209709 M761.1349202153391,544.3460031209709 L762.2165135202683,542.6263629590737 M762.2165135202683,542.6263629590737 L762.7796793433498,540.3807907523473 M762.7796793433498,540.3807907523473 L762.7915860031653,537.7397631917822 M762.7915860031653,537.7397631917822 L762.2514756448492,534.856804889703 M762.2514756448492,534.856804889703 L761.1907233969725,531.8995561634465 M761.1907233969725,531.8995561634465 L759.6709876961093,529.0399924818558 M759.6709876961093,529.0399924818558 L757.7806664291322,526.4444302348575 M757.7806664291322,526.4444302348575 L755.6296579871587,524.2637799773626 M755.6296579871587,524.2637799773626 L753.3430859342718,522.6248325946901 M737.6097756611001,630.7493425952903 L718.4088504845496,641.5552376416175 M737.6097756611001,630.7493425952903 L784.9267273284952,603.0812410356115 M483.83607791933434,630.7493425952903 L502.8457270688896,641.5552376416175 M483.83607791933434,630.7493425952903 L501.4928003065728,639.758558582647 M501.4928003065728,639.758558582647 L521.027020855892,647.3536100707826 M521.027020855892,647.3536100707826 L542.1030365895034,653.4025200314159 M542.1030365895034,653.4025200314159 L564.3579502178552,657.8000461699535 M564.3579502178552,657.8000461699535 L587.4079604694609,660.4695865174274 M587.4079604694609,660.4695865174274 L610.8551862885727,661.3646347731525 M610.8551862885727,661.3646347731525 L634.2946666595471,660.4695794624947 M634.2946666595471,660.4695794624947 L657.321611828166,657.8000391161597 M657.321611828166,657.8000391161597 L679.5385486915407,653.4025306092927 M679.5385486915407,653.4025306092927 L700.562289124646,647.3536135954516 M700.562289124646,647.3536135954516 L720.0308755621024,639.7585550595974 M720.0308755621024,639.7585550595974 L737.6097756611001,630.7493425952903 M169.15655213248715,199.96045824549893 L158.0187587006605,207.7058871977669 M158.0187587006605,207.7058871977669 L149.7091273248995,216.54708479143738 M149.7091273248995,216.54708479143738 L144.54870154812176,226.14576120028255 M144.54870154812176,226.14576120028255 L142.7383576688503,236.1340509894648 M142.7383576688503,236.1340509894648 L144.35069187682717,246.1284525862227 M144.35069187682717,246.1284525862227 L149.32678460357053,255.74454377907335 M149.32678460357053,255.74454377907335 L157.47803730327615,264.6118079282012 M157.47803730327615,264.6118079282012 L168.49291619960613,272.3879804004542 M168.9577703798325,374.3031538279462 L168.49291619960613,272.3879804004542 M168.49291619960613,272.3879804004542 L149.36596782145622,261.39599626127387 M168.49291619960613,272.3879804004542 L547.3149634382453,491.61371441517065 M547.3149634382453,491.61371441517065 L528.313896304096,480.6950940385875 M547.3149634382453,491.61371441517065 L560.9355580221625,498.0841666656679 M560.9355580221625,498.0841666656679 L576.4732546579166,502.8937989272225 M576.4732546579166,502.8937989272225 L593.3291625764052,505.8562437450506 M593.3291625764052,505.8562437450506 L610.8529150080063,506.8566617847288 M610.8529150080063,506.8566617847288 L628.3679893751214,505.8562472559587 M628.3679893751214,505.8562472559587 L645.1981817294651,502.8937954169463 M645.1981817294651,502.8937954169463 L660.6941222748959,498.0841666656679 M660.6941222748959,498.0841666656679 L674.2585500426796,491.61371441517065 M674.2585500426796,491.61371441517065 L693.4513212340089,480.69509403858757 M674.2585500426796,491.61371441517065 L721.6497116954213,464.04980640012644 M738.0322348132358,528.4375695933835 L718.9693868365704,495.4197483608373 M738.0322348132358,528.4375695933835 L785.4229054652784,500.8119576765181 M483.8609284576953,528.4375695933835 L502.9237764343608,495.4197483608373 M483.8609284576953,528.4375695933835 L501.5453294587911,537.4329658565816 M501.5453294587911,537.4329658565816 L521.1101834090405,545.0163728545721 M521.1101834090405,545.0163728545721 L542.2192586245535,551.0560127271548 M542.2192586245535,551.0560127271548 L564.5090849703607,555.4468017347067 M564.5090849703607,555.4468017347067 L587.5952543661741,558.1122531661299 M587.5952543661741,558.1122531661299 L611.0792560952706,559.005930633828 M611.0792560952706,559.005930633828 L634.5554880831204,558.1122461220023 M634.5554880831204,558.1122461220023 L657.6185200010293,555.4467946917181 M657.6185200010293,555.4467946917181 L679.8702503675344,551.0560232888239 M679.8702503675344,551.0560232888239 L700.9268862673869,545.0163763738386 M700.9268862673869,545.0163763738386 L720.4259002147195,537.4329623389347 M720.4259002147195,537.4329623389347 L738.0322348132358,528.4375695933835 M141.20946227066855,212.84553234786202 L144.95029553368977,215.53435541801443 M144.95029553368977,215.53435541801443 L148.47925786557934,219.1239697932454 M148.47925786557934,219.1239697932454 L151.59101218470568,223.4056326841419 M151.59101218470568,223.4056326841419 L154.10449702500983,228.13026646289035 M154.10449702500983,228.13026646289035 L155.87345085761945,233.0229551575959 M155.87345085761945,233.0229551575959 L156.795068832887,237.7990685104263 M156.795068832887,237.7990685104263 L156.81582435140464,242.1807791843056 M156.81582435140464,242.1807791843056 L155.93468707393268,245.91333422795378 M155.93468707393268,245.91333422795378 L154.20314244664752,248.77988523568678 M154.20314244664752,248.77988523568678 L151.7220209179788,250.61400681618358 M151.7220209179788,250.61400681618358 L148.63574530489444,251.30941715148356 M148.63574530489444,251.30941715148356 L145.12377138743318,250.82602162306534 M145.12377138743318,250.82602162306534 L141.3901855489937,249.19219067910154 M141.3901855489937,249.19219067910154 L137.65184557209727,246.5030540867686 M137.65184557209727,246.5030540867686 L134.12580057111632,242.91492180250816 M134.12580057111632,242.91492180250816 L131.01671930397868,238.63619708281846 M131.01671930397868,238.63619708281846 L128.5050508855308,233.91528446143224 M128.5050508855308,233.91528446143224 L126.73664068810729,229.02624742667598 M126.73664068810729,229.02624742667598 L125.81416907504484,224.25287970444293 M125.81416907504484,224.25287970444293 L125.79135815918914,219.87237962342834 M125.79135815918914,219.87237962342834 L126.66970915185584,216.13922279977288 M126.66970915185584,216.13922279977288 L128.39837494141636,213.27039552595664 M128.39837494141636,213.27039552595664 L130.8771845528683,211.43284462692864 M130.8771845528683,211.43284462692864 L133.9622448196372,210.73363755771308 M133.9622448196372,210.73363755771308 L137.47437837630082,211.21373871328558 M137.47437837630082,211.21373871328558 L141.20946227066855,212.84553234786202 M141.20946227066855,212.84553234786202 L145.9669776078526,213.77399731093374 M145.9669776078526,213.77399731093374 L150.7231769693404,214.7022054514333 M737.6097756611001,630.7493425952903 L737.8208398911202,579.6334998411087 M737.8208398911202,579.6334998411087 L738.0322348132358,528.4375695933835 M737.8208398911202,579.6334998411087 L720.660735136177,597.6679632543276 M720.660735136177,597.6679632543276 L701.3593135547436,614.1259877353073 M701.3593135547436,614.1259877353073 L681.3521619426202,627.5257760396397 M681.3521619426202,627.5257760396397 L660.9886567296795,637.6097341408109 M660.9886567296795,637.6097341408109 L642.2493149495516,643.7069022768737 M642.2493149495516,643.7069022768737 L632.1025997917179,645.6558424372056 M632.1025997917179,645.6558424372056 L622.1365029316764,646.5562862584546 M622.1365029316764,646.5562862584546 L605.9246648703227,645.5543625432849 M605.9246648703227,645.5543625432849 L591.7696852140458,641.5087735135095 M591.7696852140458,641.5087735135095 L580.9850390954183,635.4893415480989 M580.9850390954183,635.4893415480989 L573.2716369232894,628.4598231229227 M573.2716369232894,628.4598231229227 L568.3271466107136,621.3399974183311 M568.3271466107136,621.3399974183311 L565.585714838993,614.6612223631556 M565.585714838993,614.6612223631556 L564.4643414463985,607.9911703901312 M564.4643414463985,607.9911703901312 L564.9538233051267,601.531910624408 M564.9538233051267,601.531910624408 L567.0588559911224,595.4557468257481 M567.0588559911224,595.4557468257481 L570.7888750455569,589.9238450865436 M570.7888750455569,589.9238450865436 L576.1141484961155,585.0950956084854 M576.1141484961155,585.0950956084854 L582.9001940081324,581.1069214098164 M582.9001940081324,581.1069214098164 L590.8642070821556,578.0332058845812 M590.8642070821556,578.0332058845812 L599.6093063686399,575.849594777581 M599.6093063686399,575.849594777581 L610.9330881570346,574.2023007009838 M610.9330881570346,574.2023007009838 L622.3091500345673,573.4431727797787 M622.3091500345673,573.4431727797787 L639.7582614231025,573.4117605356441 M639.7582614231025,573.4117605356441 L656.1795805721215,574.1792228083507 M656.1795805721215,574.1792228083507 L676.0511176264158,575.6773909498405 M676.0511176264158,575.6773909498405 L696.4099270248516,577.4328982697795 M696.4099270248516,577.4328982697795 L716.5475034127949,578.9439876817844 M716.5475034127949,578.9439876817844 L727.5813603812908,579.4764078769914 M727.5813603812908,579.4764078769914 L737.8208398911202,579.6334998411087 M547.1909881736894,593.868834282692 L547.3149634382453,491.61371441517065 M673.9362143548343,593.8688342826922 L674.0972561808951,542.7812512179106 M674.0972561808951,542.7812512179106 L674.2585500426796,491.61371441517065 M674.0972561808951,542.7812512179106 L677.2566759655556,540.9407997864745 M737.8208398911202,579.6334998411087 L740.9802297536058,577.7889300334424 M718.618757973939,542.8687215106148 L716.3297460820269,541.8651932741793 M716.3297460820269,541.8651932741793 L714.1715550993256,541.5570630600797 M714.1715550993256,541.5570630600797 L712.2696394235027,541.9621486198157 M712.2696394235027,541.9621486198157 L710.7344492302041,543.056763967143 M710.7344492302041,543.056763967143 L709.6551510255578,544.777196630942 M709.6551510255578,544.777196630942 L709.0943737250395,547.0233870806309 M709.0943737250395,547.0233870806309 L709.084632974829,549.6647836751494 M709.084632974829,549.6647836751494 L709.6264290761424,552.5479148655437 M709.6264290761424,552.5479148655437 L710.6882329688534,555.5053012551988 M710.6882329688534,555.5053012551988 L712.2083576493063,558.3651876454202 M712.2083576493063,558.3651876454202 L714.098496257849,560.9614721495353 M714.098496257849,560.9614721495353 L716.2489296520606,563.143387101074 M716.2489296520606,563.143387101074 L718.534752766868,564.7841621562025 M718.534752766868,564.7841621562025 L720.8231995662736,565.7884299743754 M720.8231995662736,565.7884299743754 L722.9813203177034,566.0977632384107 M722.9813203177034,566.0977632384107 L724.883676707331,565.6940685836106 M724.883676707331,565.6940685836106 L726.4197176008242,564.6007133723497 M726.4197176008242,564.6007133723497 L727.5000816068957,562.8811213866737 M727.5000816068957,562.8811213866737 L728.0618956513289,560.635159570088 M728.0618956513289,560.635159570088 L728.0724065746522,557.9933271810835 M728.0724065746522,557.9933271810835 L727.5309376361874,555.1091956050273 M727.5309376361874,555.1091956050273 L726.4689429564183,552.1504734193362 M726.4689429564183,552.1504734193362 L724.9481532426389,549.2892218352682 M724.9481532426389,549.2892218352682 L723.057027717247,546.69185548952 M723.057027717247,546.69185548952 L720.9055115866628,544.509389882939 M720.9055115866628,544.509389882939 L718.618757973939,542.8687215106148 M718.618757973939,542.8687215106148 L753.3430859342718,522.6248325946901 M740.9802297536058,577.7889300334424 L740.146657730772,585.4560956443086 M740.146657730772,585.4560956443086 L737.7561300323433,591.8117857345657 M737.7561300323433,591.8117857345657 L733.9293672195857,596.5376819634884 M733.9293672195857,596.5376819634884 L728.8590567608446,599.3975881739628 M728.8590567608446,599.3975881739628 L722.7999798781998,600.2490768102413 M722.7999798781998,600.2490768102413 L716.0562846412953,599.050539849989 M716.0562846412953,599.050539849989 L708.9659872011739,595.8629379195802 M708.9659872011739,595.8629379195802 L622.1365029316764,646.5562862584546 M708.9659872011739,595.8629379195802 L701.884199808463,590.8466695308025 M701.884199808463,590.8466695308025 L695.1653491032063,584.2533815028082 M695.1653491032063,584.2533815028082 L689.1454799338562,576.4132965788309 M689.1454799338562,576.4132965788309 L684.1257253344963,567.7188090691561 M684.1257253344963,567.7188090691561 L680.3571662192445,558.604863381388 M680.3571662192445,558.604863381388 L678.0285202738521,549.5274240289993 M678.0285202738521,549.5274240289993 L677.2566759655556,540.9407997864745 M677.2566759655556,540.9407997864745 L678.080734858858,533.2749827021996 M678.080734858858,533.2749827021996 L680.4601222233638,526.9142921668315 M680.4601222233638,526.9142921668315 L684.2763240304616,522.1780369552564 M684.2763240304616,522.1780369552564 L689.3387445474007,519.3044649671937 M689.3387445474007,519.3044649671937 L695.3941652221607,518.4387103748845 M695.3941652221607,518.4387103748845 L702.139162154147,519.6252067991695 M702.139162154147,519.6252067991695 L709.2354613881254,522.805378349925 M709.2354613881254,522.805378349925 L622.3091500345673,573.4431727797787 M709.2354613881254,522.805378349925 L716.3267619452407,527.820298217923 M716.3267619452407,527.820298217923 L723.0567529483731,534.4185866771093 M723.0567529483731,534.4185866771093 L729.0871831536075,542.2690305777331 M729.0871831536075,542.2690305777331 L734.1148276745313,550.9771838874859 M734.1148276745313,550.9771838874859 L737.8870430075792,560.1053955283444 M737.8870430075792,560.1053955283444 L740.2143872688176,569.19487543992 M740.2143872688176,569.19487543992 L740.9802297536058,577.7889300334424 M709.168036358899,541.0850812962982 L712.979883693223,543.8202467292431 M712.979883693223,543.8202467292431 L716.5665684690308,547.4588179929809 M716.5665684690308,547.4588179929809 L719.7193913025235,551.7892029911029 M719.7193913025235,551.7892029911029 L722.2548982683883,556.5594868559608 M722.2548982683883,556.5594868559608 L724.0255446565108,561.492094040032 M724.0255446565108,561.492094040032 L724.9284293184663,566.3000697918596 M724.9284293184663,566.3000697918596 L724.9111182786036,570.7037317079473 M724.9111182786036,570.7037317079473 L723.9748006789591,574.447051117747 M723.9748006789591,574.447051117747 L722.1741776569417,577.3125573861547 M722.1741776569417,577.3125573861547 L719.6141003325607,579.1338904248163 M719.6141003325607,579.1338904248163 L716.4435852183727,579.8055181855175 M716.4435852183727,579.8055181855175 L712.8469843534931,579.2887339022816 M712.8469843534931,579.2887339022816 L709.0332992969761,577.6138525268249 M709.0332992969761,577.6138525268249 L705.2240368519349,574.878391054325 M705.2240368519349,574.878391054325 L701.6403601458526,571.2413502096173 M701.6403601458526,571.2413502096173 L698.4902794517458,566.9139714847798 M698.4902794517458,566.9139714847798 L695.9566205170283,562.1474810522108 M695.9566205170283,562.1474810522108 L694.1865046527782,557.2185854180527 M694.1865046527782,557.2185854180527 L693.282711526505,552.4133890825256 M693.282711526505,552.4133890825256 L693.2978831859598,548.0109377001863 M693.2978831859598,548.0109377001863 L694.2313206009085,544.2669826199935 M694.2313206009085,544.2669826199935 L696.0289824806679,541.3991401283948 M696.0289824806679,541.3991401283948 L698.5866960327129,539.5743054820485 M698.5866960327129,539.5743054820485 L701.755986274712,538.8988129272881 M701.755986274712,538.8988129272881 L705.3527817642789,539.4122545980978 M705.3527817642789,539.4122545980978 L709.168036358899,541.0850812962982 M709.168036358899,541.0850812962982 L713.8940573727518,541.9770260045835 M713.8940573727518,541.9770260045835 L718.618757973939,542.8687215106148" stroke="black"  stroke-width="4"  fill="red"/>
<path d="M709.2354613881254,522.805378349925 L582.5125375756842,596.6261728325585 M708.9659872011739,595.8629379195802 L582.384319378253,669.7646619047958 M709.2354613881254,522.805378349925 L716.8617435766076,528.2754110749216 M716.8617435766076,528.2754110749216 L724.0381249127241,535.554084521278 M724.0381249127241,535.554084521278 L730.3465162566256,544.2178638878006 M730.3465162566256,544.2178638878006 L735.4193558924585,553.7622155142652 M735.4193558924585,553.7622155142652 L738.9612032349661,563.6311596970365 M738.9612032349661,563.6311596970365 L740.7660373175756,573.2498789130132 M740.7660373175756,573.2498789130132 L740.7292723049444,582.058413288734 M740.7292723049444,582.058413288734 L738.8537779678843,589.5444288481917 M738.8537779678843,589.5444288481917 L735.2495445090956,595.2730892529921 M735.2495445090956,595.2730892529921 L730.127050049178,598.9122673173264 M730.127050049178,598.9122673173264 L723.7847955214221,600.2516596724579 M723.7847955214221,600.2516596724579 L716.5917887466615,599.2147517947411 M716.5917887466615,599.2147517947411 L708.9659872011739,595.8629379195802 M582.5125375756842,596.6261728325585 L590.1409833428929,602.117165953694 M590.1409833428929,602.117165953694 L597.32351547556,609.4179477099891 M597.32351547556,609.4179477099891 L603.6416851773637,618.1036946870116 M603.6416851773637,618.1036946870116 L608.7273593968617,627.6685912534199 M608.7273593968617,627.6685912534199 L612.2843484132154,637.5554581226638 M612.2843484132154,637.5554581226638 L614.1057486193291,647.188431545262 M614.1057486193291,647.188431545262 L614.0860099353685,656.0067206416603 M614.0860099353685,656.0067206416603 L612.2270126596072,663.4974245731639 M612.2270126596072,663.4974245731639 L608.6377897927468,669.2254372156564 M608.6377897927468,669.2254372156564 L603.5279497950207,672.8586737018765 M603.5279497950207,672.8586737018765 L597.1952613973194,674.1871815480306 M597.1952613973194,674.1871815480306 L590.0081795047947,673.1350840572733 M590.0081795047947,673.1350840572733 L582.384319378253,669.7646619047958 M708.9659872011739,595.8629379195802 L701.3500445733854,590.3917210315146 M701.3500445733854,590.3917210315146 L694.1856955221878,583.1191692603682 M694.1856955221878,583.1191692603682 L687.8882727418439,574.4674149911696 M687.8882727418439,574.4674149911696 L682.822825173284,564.9382370839697 M682.822825173284,564.9382370839697 L679.2830999847026,555.0841391242745 M679.2830999847026,555.0841391242745 L677.474631982274,545.4765375467864 M677.474631982274,545.4765375467864 L677.5028394739131,536.6728453012643 M677.5028394739131,536.6728453012643 L679.3668131188715,529.1842870908883 M679.3668131188715,529.1842870908883 L682.9592019780018,523.4462817573092 M682.9592019780018,523.4462817573092 L688.0722413776767,519.7930972966996 M688.0722413776767,519.7930972966996 L694.4095964163937,518.4382457645403 M694.4095964163937,518.4382457645403 L701.6033816894221,519.4617831892626 M701.6033816894221,519.4617831892626 L709.2354613881254,522.805378349925 M582.384319378253,669.7646619047958 L574.7662226271733,664.2725008407027 M574.7662226271733,664.2725008407027 L567.5957482853823,656.9778848160395 M567.5957482853823,656.9778848160395 L561.2885828604805,648.3042247362486 M561.2885828604805,648.3042247362486 L556.2103384474781,638.7545672748746 M556.2103384474781,638.7545672748746 L552.6555027045605,628.8826006212596 M552.6555027045605,628.8826006212596 L550.8304859493284,619.2607750674407 M550.8304859493284,619.2607750674407 L550.8416667547508,610.4473276438275 M550.8416667547508,610.4473276438275 L552.6891253345416,602.9540500211011 M552.6891253345416,602.9540500211011 L556.2664720760577,597.2166379376704 M556.2664720760577,597.2166379376704 L561.3668191881736,593.5693295592221 M561.3668191881736,593.5693295592221 L567.6945726370851,592.2253010605662 M567.6945726370851,592.2253010605662 L574.8824080571342,593.2639847265948 M574.8824080571342,593.2639847265948 L582.5125375756842,596.6261728325585" stroke="black"  stroke-width="4"  fill="red"/>
<path d="M709.168036358899,541.0850812962982 L712.979883693223,543.8202467292431 M712.979883693223,543.8202467292431 L716.5665684690308,547.4588179929809 M716.5665684690308,547.4588179929809 L719.7193913025235,551.7892029911029 M719.7193913025235,551.7892029911029 L722.2548982683883,556.5594868559608 M722.2548982683883,556.5594868559608 L724.0255446565108,561.492094040032 M724.0255446565108,561.492094040032 L724.9284293184663,566.3000697918596 M724.9284293184663,566.3000697918596 L724.9111182786036,570.7037317079473 M724.9111182786036,570.7037317079473 L723.9748006789591,574.447051117747 M723.9748006789591,574.447051117747 L722.1741776569417,577.3125573861547 M722.1741776569417,577.3125573861547 L719.6141003325607,579.1338904248163 M719.6141003325607,579.1338904248163 L716.4435852183727,579.8055181855175 M716.4435852183727,579.8055181855175 L712.8469843534931,579.2887339022816 M712.8469843534931,579.2887339022816 L709.0332992969761,577.6138525268249 M709.0332992969761,577.6138525268249 L705.2240368519349,574.878391054325 M705.2240368519349,574.878391054325 L701.6403601458526,571.2413502096173 M701.6403601458526,571.2413502096173 L698.4902794517458,566.9139714847798 M698.4902794517458,566.9139714847798 L695.9566205170283,562.1474810522108 M695.9566205170283,562.1474810522108 L694.1865046527782,557.2185854180527 M694.1865046527782,557.2185854180527 L693.282711526505,552.4133890825256 M693.282711526505,552.4133890825256 L693.2978831859598,548.0109377001863 M693.2978831859598,548.0109377001863 L694.2313206009085,544.2669826199935 M694.2313206009085,544.2669826199935 L696.0289824806679,541.3991401283948 M696.0289824806679,541.3991401283948 L698.5866960327129,539.5743054820485 M698.5866960327129,539.5743054820485 L701.755986274712,538.8988129272881 M701.755986274712,538.8988129272881 L705.3527817642789,539.4122545980978 M705.3527817642789,539.4122545980978 L709.168036358899,541.0850812962982 M709.168036358899,541.0850812962982 L713.8940573727518,541.9770260045835 M713.8940573727518,541.9770260045835 L718.618757973939,542.8687215106148 M718.618757973939,542.8687215106148 L716.3297460820269,541.8651932741793 M716.3297460820269,541.8651932741793 L714.1715550993256,541.5570630600797 M714.1715550993256,541.5570630600797 L712.2696394235027,541.9621486198157 M712.2696394235027,541.9621486198157 L710.7344492302041,543.056763967143 M710.7344492302041,543.056763967143 L709.6551510255578,544.777196630942 M709.6551510255578,544.777196630942 L709.0943737250395,547.0233870806309 M709.0943737250395,547.0233870806309 L709.084632974829,549.6647836751494 M709.084632974829,549.6647836751494 L709.6264290761424,552.5479148655437 M709.6264290761424,552.5479148655437 L710.6882329688534,555.5053012551988 M710.6882329688534,555.5053012551988 L712.2083576493063,558.3651876454202 M712.2083576493063,558.3651876454202 L714.098496257849,560.9614721495353 M714.098496257849,560.9614721495353 L716.2489296520606,563.143387101074 M716.2489296520606,563.143387101074 L718.534752766868,564.7841621562025 M718.534752766868,564.7841621562025 L720.8231995662736,565.7884299743754 M720.8231995662736,565.7884299743754 L722.9813203177034,566.0977632384107 M722.9813203177034,566.0977632384107 L724.883676707331,565.6940685836106 M724.883676707331,565.6940685836106 L726.4197176008242,564.6007133723497 M726.4197176008242,564.6007133723497 L727.5000816068957,562.8811213866737 M727.5000816068957,562.8811213866737 L728.0618956513289,560.635159570088 M728.0618956513289,560.635159570088 L728.0724065746522,557.9933271810835 M728.0724065746522,557.9933271810835 L727.5309376361874,555.1091956050273 M727.5309376361874,555.1091956050273 L726.4689429564183,552.1504734193362 M726.4689429564183,552.1504734193362 L724.9481532426389,549.2892218352682 M724.9481532426389,549.2892218352682 L723.057027717247,546.69185548952 M723.057027717247,546.69185548952 L720.9055115866628,544.509389882939 M720.9055115866628,544.509389882939 L718.618757973939,542.8687215106148 M718.618757973939,542.8687215106148 L806.9241237709359,491.38769593348627 M806.9241237709359,491.38769593348627 L804.6347211133713,490.388047648722 M804.6347211133713,490.388047648722 L802.4753066924758,490.08307710406416 M802.4753066924758,490.08307710406416 L800.5714061396782,490.4904186150387 M800.5714061396782,490.4904186150387 L799.0335851735988,491.5862554968504 M799.0335851735988,491.5862554968504 L797.9511633950024,493.30680460311146 M797.9511633950024,493.30680460311146 L797.3869514190512,495.55199993564474 M797.3869514190512,495.55199993564474 L797.3736645995709,498.1913478259603 M797.3736645995709,498.1913478259603 L797.9120093260896,501.07149579026395 M797.9120093260896,501.07149579026395 L798.9706570278175,504.0251376686515 M798.9706570278175,504.0251376686515 L800.4881039610501,506.8807355815014 M800.4881039610501,506.8807355815014 L802.3761986870395,509.4724365591511 M802.3761986870395,509.4724365591511 L804.5253406532096,511.64973890178965 M804.5253406532096,511.64973890178965 L806.8106997100457,513.2861401382143 M806.8106997100457,513.2861401382143 L809.0995367408586,514.2865270364351 M809.0995367408586,514.2865270364351 L811.2588793780765,514.5926979090787 M811.2588793780765,514.5926979090787 L813.163218429765,514.1867434510146 M813.163218429765,514.1867434510146 L814.7018877260043,513.0921626055797 M814.7018877260043,513.0921626055797 L815.7853733238261,511.3724507692938 M815.7853733238261,511.3724507692938 L816.3506209034194,509.1274821340136 M816.3506209034194,509.1274821340136 L816.3646778589033,506.4876984291625 M816.3646778589033,506.4876984291625 L815.8266613697887,503.6065519795418 M815.8266613697887,503.6065519795418 L814.7678248210417,500.651577690488 M814.7678248210417,500.651577690488 L813.2497152155717,497.79461867864825 M813.2497152155717,497.79461867864825 L811.3606358139642,495.2018397256097 M811.3606358139642,495.2018397256097 L809.2104127193813,493.023989479893 M809.2104127193813,493.023989479893 L806.9241237709359,491.38769593348627" stroke="black"  stroke-width="4"  fill="red"/>
<path d="M141.1190256052363,194.65711406802302 L14.400843213793735,267.0125987992889 M141.48047224485288,267.3504474164628 L14.90353010129968,339.78687106157736 M141.1190256052363,194.65711406802302 L148.6031879143751,200.03444461474217 M148.6031879143751,200.03444461474217 L155.66403346423388,207.21515591250522 M155.66403346423388,207.21515591250522 L161.89021856196695,215.78142285620277 M161.89021856196695,215.78142285620277 L166.91898276931062,225.23440218551588 M166.91898276931062,225.23440218551588 L170.45745767766795,235.02344911923302 M170.45745767766795,235.02344911923302 L172.2998138234088,244.57840999243 M172.2998138234088,244.57840999243 L172.33926606735787,253.34304197239385 M172.33926606735787,253.34304197239385 L170.57422592307967,260.80756247963035 M170.57422592307967,260.80756247963035 L167.10823211093293,266.5383726608717 M167.10823211093293,266.5383726608717 L162.14370062743205,270.2031998339813 M162.14370062743205,270.2031998339813 L155.9699346161401,271.5902253533905 M155.9699346161401,271.5902253533905 L148.94614676382056,270.6201431404818 M148.94614676382056,270.6201431404818 L141.48047224485288,267.3504474164628 M14.400843213793735,267.0125987992889 L21.886832644454444,272.41030374880285 M21.886832644454444,272.41030374880285 L28.953511475985124,279.61257131949213 M28.953511475985124,279.61257131949213 L35.18919494743784,288.20032002774064 M35.18919494743784,288.20032002774064 L40.23056768108722,297.67345305420645 M40.23056768108722,297.67345305420645 L43.784025354413245,307.48014893119444 M43.784025354413245,307.48014893119444 L45.64286512340425,317.0492237821467 M45.64286512340425,317.0492237821467 L45.699342359119555,325.82361194623354 M45.699342359119555,325.82361194623354 L43.95087908424529,333.29296383977174 M43.95087908424529,333.29296383977174 L40.50005204891346,339.02340238405856 M40.50005204891346,339.02340238405856 L35.548398378699005,342.6826809985407 M35.548398378699005,342.6826809985407 L29.384475927801077,344.05930890984604 M29.384475927801077,344.05930890984604 L22.366928288212137,343.0745894332845 M22.366928288212137,343.0745894332845 L14.90353010129968,339.78687106157736 M141.48047224485288,267.3504474164628 L134.00628308354578,261.9718627763101 M134.00628308354578,261.9718627763101 L126.95710686300737,254.79707984149934 M126.95710686300737,254.79707984149934 L120.74161397895512,246.24256558662023 M120.74161397895512,246.24256558662023 L115.72011540355663,236.8044708773603 M115.72011540355663,236.8044708773603 L112.18381509259666,227.03003060589418 M112.18381509259666,227.03003060589418 L110.33804433515911,217.48605222925036 M110.33804433515911,217.48605222925036 L110.29037050254857,208.7262626160364 M110.29037050254857,208.7262626160364 L112.04426555301427,201.25933501861763 M112.04426555301427,201.25933501861763 L115.49874398441426,195.51941973785296 M115.49874398441426,195.51941973785296 L120.45402782743923,191.8408753243241 M120.45402782743923,191.8408753243241 L126.62293245319518,190.43866286849078 M126.62293245319518,190.43866286849078 L133.64735886184116,191.39556758684412 M133.64735886184116,191.39556758684412 L141.1190256052363,194.65711406802302 M14.90353010129968,339.78687106157736 L7.427521918118771,334.3879271349864 M7.427521918118771,334.3879271349864 L0.3725363372808488,327.1916301985193 M0.3725363372808488,327.1916301985193 L-5.852420657519929,318.61569392140365 M-5.852420657519929,318.61569392140365 L-10.886491003897731,309.15750904209847 M-10.886491003897731,309.15750904209847 L-14.437743252339374,299.36547258597835 M-14.437743252339374,299.36547258597835 L-16.299979795576746,289.80741013534106 M-16.299979795576746,289.80741013534106 L-16.36467785890335,281.03786453627436 M-16.36467785890335,281.03786453627436 L-14.627376167525085,273.56607599993475 M-14.627376167525085,273.56607599993475 L-11.188094475735056,267.82647982283856 M-11.188094475735056,267.82647982283856 L-6.245725017805114,264.15342048871076 M-6.245725017805114,264.15342048871076 L-0.0866987551407874,262.7615457580819 M-0.0866987551407874,262.7615457580819 L6.931462380055791,263.73304517193765 M6.931462380055791,263.73304517193765 L14.400843213793735,267.0125987992889" stroke="black"  stroke-width="4"  fill="red"/>
<path d="M141.20946227066855,212.84553234786202 L144.95029553368977,215.53435541801443 M144.95029553368977,215.53435541801443 L148.47925786557934,219.1239697932454 M148.47925786557934,219.1239697932454 L151.59101218470568,223.4056326841419 M151.59101218470568,223.4056326841419 L154.10449702500983,228.13026646289035 M154.10449702500983,228.13026646289035 L155.87345085761945,233.0229551575959 M155.87345085761945,233.0229551575959 L156.795068832887,237.7990685104263 M156.795068832887,237.7990685104263 L156.81582435140464,242.1807791843056 M156.81582435140464,242.1807791843056 L155.93468707393268,245.91333422795378 M155.93468707393268,245.91333422795378 L154.20314244664752,248.77988523568678 M154.20314244664752,248.77988523568678 L151.7220209179788,250.61400681618358 M151.7220209179788,250.61400681618358 L148.63574530489444,251.30941715148356 M148.63574530489444,251.30941715148356 L145.12377138743318,250.82602162306534 M145.12377138743318,250.82602162306534 L141.3901855489937,249.19219067910154 M141.3901855489937,249.19219067910154 L137.65184557209727,246.5030540867686 M137.65184557209727,246.5030540867686 L134.12580057111632,242.91492180250816 M134.12580057111632,242.91492180250816 L131.01671930397868,238.63619708281846 M131.01671930397868,238.63619708281846 L128.5050508855308,233.91528446143224 M128.5050508855308,233.91528446143224 L126.73664068810729,229.02624742667598 M126.73664068810729,229.02624742667598 L125.81416907504484,224.25287970444293 M125.81416907504484,224.25287970444293 L125.79135815918914,219.87237962342834 M125.79135815918914,219.87237962342834 L126.66970915185584,216.13922279977288 M126.66970915185584,216.13922279977288 L128.39837494141636,213.27039552595664 M128.39837494141636,213.27039552595664 L130.8771845528683,211.43284462692864 M130.8771845528683,211.43284462692864 L133.9622448196372,210.73363755771308 M133.9622448196372,210.73363755771308 L137.47437837630082,211.21373871328558 M137.47437837630082,211.21373871328558 L141.20946227066855,212.84553234786202 M141.20946227066855,212.84553234786202 L145.9669776078526,213.77399731093374 M145.9669776078526,213.77399731093374 L150.7231769693404,214.7022054514333 M150.7231769693404,214.7022054514333 L148.4822514649727,213.72328608120426 M148.4822514649727,213.72328608120426 L146.3748464270313,213.43515367833777 M146.3748464270313,213.43515367833777 L144.5234632465062,213.85446502339173 M144.5234632465062,213.85446502339173 L143.0356165175461,214.95670997956276 M143.0356165175461,214.95670997956276 L141.99772251591168,216.67773467462078 M141.99772251591168,216.67773467462078 L141.47000652728195,218.91744706779153 M141.47000652728195,218.91744706779153 L141.4830654091043,221.5456728792988 M141.4830654091043,221.5456728792988 L142.03607700918872,224.4097060009978 M142.03607700918872,224.4097060009978 L143.0968624263768,227.34317606513952 M143.0968624263768,227.34317606513952 L144.60379415711574,230.17571590394613 M144.60379415711574,230.17571590394613 L146.46933147528847,232.74281092050308 M146.46933147528847,232.74281092050308 L148.58518197696588,234.89538722810778 M148.58518197696588,234.89538722810778 L150.82844808254941,236.5083783047495 M150.82844808254941,236.5083783047495 L153.0688342225131,237.48803100314967 M153.0688342225131,237.48803100314967 L155.1761816233094,237.77734909508735 M155.1761816233094,237.77734909508735 L157.0280020927339,237.35940416414968 M157.0280020927339,237.35940416414968 L158.51668086256703,236.25839333355702 M158.51668086256703,236.25839333355702 L159.55561104645426,234.53818774526047 M159.55561104645426,234.53818774526047 L160.0843299852674,232.29869179463543 M160.0843299852674,232.29869179463543 L160.0720110502249,229.67003017174562 M160.0720110502249,229.67003017174562 L159.51930687862506,226.80500882502128 M159.51930687862506,226.80500882502128 L158.45832595260237,223.87022451701114 M158.45832595260237,223.87022451701114 L156.9507405611477,221.03634549077555 M156.9507405611477,221.03634549077555 L155.08424118740015,218.46819313538916 M155.08424118740015,218.46819313538916 L152.96734060477002,216.31508355889866 M152.96734060477002,216.31508355889866 L150.7231769693404,214.7022054514333 M150.7231769693404,214.7022054514333 L239.02888028427103,164.2405815012126 M239.02888028427103,164.2405815012126 L236.78749351623816,163.2654201159275 M236.78749351623816,163.2654201159275 L234.6787986502853,162.9803325381316 M234.6787986502853,162.9803325381316 L232.82537217069364,163.40179878360775 M232.82537217069364,163.40179878360775 L231.3348476049946,164.50518387881135 M231.3348476049946,164.50518387881135 L230.29379705266842,166.22626799692733 M230.29379705266842,166.22626799692733 L229.7626294070443,168.4649559325399 M229.7626294070443,168.4649559325399 L229.7721422124236,171.09113307643108 M229.7721422124236,171.09113307643108 L230.32171939932877,173.9522123800223 M230.32171939932877,173.9522123800223 L231.37938156723112,176.88199500422095 M231.37938156723112,176.88199500422095 L232.8836825597595,179.71032779040593 M232.8836825597595,179.71032779040593 L234.74723434435137,182.2729403354407 M234.74723434435137,182.2729403354407 L236.8618597250193,184.42101885968108 M236.8618597250193,184.42101885968108 L239.1047321920103,186.0297580488308 M239.1047321920103,186.0297580488308 L241.34557900981915,187.00565178374052 M241.34557900981915,187.00565178374052 L243.45421468016437,187.29192237911917 M243.45421468016437,187.29192237911917 L245.30807627459095,186.8718187953617 M245.30807627459095,186.8718187953617 L246.79943058952512,185.7696638520187 M246.79943058952512,185.7696638520187 L247.8415154398886,184.04939555597318 M247.8415154398886,184.04939555597318 L248.37368499054907,181.81092221971542 M248.37368499054907,181.81092221971542 L248.36491216531428,179.18430928502676 M248.36491216531428,179.18430928502676 L247.81564351112635,176.32224363605496 M247.81564351112635,176.32224363605496 L246.75778775651133,173.39115007606645 M246.75778775651133,173.39115007606645 L245.2528354029487,170.56148208113336 M245.2528354029487,170.56148208113336 L243.38832371318463,167.997815935068 M243.38832371318463,167.997815935068 L241.27264976007882,165.84920678261386 M241.27264976007882,165.84920678261386 L239.02888028427103,164.2405815012126" stroke="black"  stroke-width="4"  fill="red"/></svg>