<svg version="1.1" xmlns="http://www.w3.org/2000/svg" viewBox="-47.27288130942844 -18.060763626010008 95.71231173777105 37.06909485524835" fill="none" stroke="black" stroke-width="0.6%" vector-effect="non-scaling-stroke">
    <path d="M -24.18034 14.52408 L -17.48105 15.1619 L -17.48105 1.37639 A 20 3.48745 180 0 0 9.15235 0.09409 L 6.57749 -3.12839" />
    <path d="M -24.18034 0.73856 L -17.48105 1.37639 L -16.04339 -2.03679" />
    <path d="M -24.18034 14.52408 L -24.18034 0.73856" />
    <path d="M -22.74268 17.01898 L -24.18034 14.52408" />
    <path d="M -22.74268 17.01898 L -16.04339 17.65681" />
    <path d="M 9.15235 13.87961 L 9.15235 0.09409 L 9.54047 -0.02429 L 6.936 -3.23795" />
    <path d="M -17.48105 15.1619 A 20 3.48745 180 0 0 9.15235 13.87961 L 6.57749 16.5652" />
    <path d="M -13.40248 6.38372 C -13.32 6.35 -13.24 6.32 -13.16122 6.28308 C -13.08 6.25 -13 6.22 -12.91846 6.18285 C -12.84 6.15 -12.76 6.12 -12.67417 6.08309 C -12.59 6.05 -12.51 6.02 -12.42832 5.98383 C -12.35 5.95 -12.26 5.92 -12.18086 5.88514 C -12.1 5.85 -12.02 5.82 -11.93179 5.78707 C -11.85 5.75 -11.76 5.72 -11.68106 5.68968 C -11.6 5.66 -11.51 5.63 -11.42866 5.59305 C -11.34 5.56 -11.26 5.53 -11.17458 5.49723 C -11.09 5.47 -11 5.43 -10.91879 5.40232 C -10.83 5.37 -10.75 5.34 -10.66129 5.30839 C -10.58 5.28 -10.49 5.25 -10.40207 5.21553 C -10.32 5.18 -10.23 5.15 -10.14112 5.12384 C -10.05 5.09 -9.97 5.06 -9.87846 5.03342 C -9.79 5 -9.7 4.97 -9.61407 4.94438 C -9.53 4.91 -9.44 4.89 -9.34798 4.85683 C -9.26 4.83 -9.16 4.8 -9.07271 4.76853 C -9.03 4.75 -8.98 4.74 -8.93443 4.72507 C -8.89 4.71 -8.84 4.7 -8.79571 4.68209 C -8.75 4.67 -8.7 4.65 -8.65654 4.63961 C -8.61 4.63 -8.56 4.61 -8.5169 4.59764 C -8.47 4.58 -8.42 4.57 -8.3768 4.55619 C -8.33 4.54 -8.28 4.53 -8.23622 4.5153 C -8.19 4.5 -8.14 4.49 -8.09515 4.47497 C -8.05 4.46 -8 4.45 -7.9536 4.43523 C -7.91 4.42 -7.86 4.41 -7.81156 4.3961 C -7.76 4.38 -7.72 4.37 -7.66903 4.3576 C -7.48 4.31 -7.29 4.26 -7.09393 4.21044 C -6.32 4.02 -5.53 3.87 -4.71978 3.76724 C -4.35 3.72 -3.97 3.69 -3.59095 3.67492 C -3.53 3.67 -3.47 3.67 -3.41686 3.66929 C -3.36 3.67 -3.3 3.67 -3.24268 3.66621 C -3.18 3.67 -3.13 3.67 -3.0685 3.66581 C -3.01 3.67 -2.95 3.67 -2.89443 3.6682 C -2.84 3.67 -2.78 3.67 -2.72058 3.6735 C -2.66 3.68 -2.6 3.68 -2.54706 3.68182 C -2.49 3.69 -2.43 3.69 -2.37398 3.69328 C -2.32 3.7 -2.26 3.7 -2.20145 3.708" />
    <path d="M -5.13032 13.47437 C -5.19 13.47 -5.26 13.46 -5.32245 13.45467 C -5.39 13.45 -5.45 13.44 -5.51398 13.43228 C -5.58 13.42 -5.64 13.42 -5.70489 13.4073 C -5.77 13.4 -5.83 13.39 -5.89513 13.37983 C -5.96 13.37 -6.02 13.36 -6.08467 13.34997 C -6.15 13.34 -6.21 13.33 -6.27349 13.31781 C -6.34 13.31 -6.4 13.3 -6.46156 13.28345 C -6.52 13.27 -6.59 13.26 -6.64885 13.24696 C -6.71 13.23 -6.77 13.22 -6.83535 13.20844 C -6.9 13.2 -6.96 13.18 -7.02105 13.16795 C -7.08 13.15 -7.14 13.14 -7.20592 13.12558 C -7.27 13.11 -7.33 13.1 -7.38995 13.08139 C -7.45 13.07 -7.51 13.05 -7.57315 13.03546 C -7.63 13.02 -7.69 13 -7.7555 12.98786 C -7.82 12.97 -7.88 12.96 -7.93701 12.93863 C -8 12.92 -8.06 12.91 -8.11766 12.88785 C -8.18 12.87 -8.24 12.85 -8.29748 12.83556 C -8.36 12.82 -8.42 12.8 -8.47645 12.78183 C -8.54 12.76 -8.6 12.75 -8.6546 12.72669 C -8.71 12.71 -8.77 12.69 -8.83193 12.6702 C -8.89 12.65 -8.95 12.63 -9.00845 12.6124 C -9.07 12.59 -9.13 12.57 -9.18418 12.55333 C -9.24 12.53 -9.3 12.51 -9.35914 12.49303 C -9.42 12.47 -9.48 12.45 -9.53335 12.43153 C -9.59 12.41 -9.65 12.39 -9.70683 12.36886 C -9.76 12.35 -9.82 12.33 -9.87961 12.30506 C -9.94 12.28 -9.99 12.26 -10.0517 12.24014 C -10.11 12.22 -10.17 12.2 -10.22315 12.17413 C -10.45 12.09 -10.68 11.99 -10.90311 11.89956 C -11.76 11.54 -12.6 11.14 -13.40248 10.7276" />
    <path d="M -22.74268 -2.67461 L -24.18034 0.73856" />
    <path d="M -22.74268 -2.67461 L -16.04339 -2.03679" />
    <path d="M -20.82476 -3.28712 L -22.74268 -2.67461" />
    <path d="M 36.25163 7.07423 A 17 2.96433 180 0 0 37.47128 6.3862 L 40.42387 3.5248 A 20 3.48745 180 0 0 40.73996 2.90722" />
    <path d="M 35.60655 7.29998 L 36.30171 7.05573" />
    <path d="M 6.90739 16.46457 L 35.66074 7.28184" />
    <path d="M 6.54788 16.57403 L 6.936 16.45564" />
    <path d="M -16.06091 17.65515 A 17 2.96433 180 0 0 6.57749 16.5652" />
    <path d="M -16.06091 -2.03844 A 17 2.96433 180 0 0 6.57749 -3.12839" />
    <path d="M 9.15235 13.87961 L 9.54047 13.76122 L 6.936 16.45564" />
    <path d="M 9.54047 13.76122 L 9.54047 -0.02429 L 38.29382 -9.20703 L 38.98898 -9.45128 L 36.30171 -12.63787" />
    <path d="M -13.40248 6.38372 A 5 2.3594 275.43861 0 0 -13.40248 10.7276" />
    <path d="M 1.91328 4.19897 A 5 2.3594 95.43861 0 1 2.38718 4.14488 L -2.20145 3.708" />
    <path d="M 2.38718 4.14488 A 5 2.3594 95.43861 0 1 1.43938 14.09986 L -5.13032 13.47437" />
    <path d="M 1.43938 14.09986 A 5 2.3594 95.43861 0 1 1.91328 4.19897" />
    <path d="M -20.82476 -3.28712 L -14.0426 -2.64141" />
    <path d="M -13.98239 -2.63583 A 13 2.26684 180 0 0 3.082 -3.46833" />
    <path d="M 3.11906 -3.47921 L 3.36107 -3.55224" />
    <path d="M 3.39661 -3.56328 L 32.14997 -12.74601" />
    <path d="M 32.21641 -12.76851 L 32.63831 -12.92026" />
    <path d="M 32.69843 -12.94329 A 13 2.26684 180 0 0 33.5345 -13.43091 A 13 2.26684 180 0 0 27.22753 -15.79672" />
    <path d="M 27.16807 -15.80254 L 20.38591 -16.44825" />
    <path d="M 22.30383 -17.06076 L 20.38591 -16.44825" />
    <path d="M 29.00312 -16.42294 L 22.30383 -17.06076" />
    <path d="M 36.25163 -12.61937 A 17 2.96433 180 0 0 37.47128 -14.35727 L 40.42387 -11.49587" />
    <path d="M 37.47128 -14.35727 A 17 2.96433 180 0 0 28.98566 -16.42461" />
    <path d="M 35.60655 -12.39362 L 36.30171 -12.63787" />
    <path d="M 6.90739 -3.22902 L 35.66074 -12.41176" />
    <path d="M 6.54788 -3.11957 L 6.936 -3.23795" />
    <path d="M -45.48216 2.98523 A 1.65 0.7786 275.43861 0 0 -45.63855 6.25252 L -24.18034 8.29551" />
    <path d="M -45.32578 2.96738 A 1.65 0.7786 275.43861 0 0 -45.48216 2.98523" />
    <path d="M 18.94824 -13.03508 L 18.94824 -8.52988" />
    <path d="M 18.94824 -13.03508 L 20.38591 -16.44825" />
    <path d="M 38.98898 4.33424 L 36.30171 7.05573" />
    <path d="M 38.98898 4.33424 A 20 3.48745 180 0 0 40.42387 3.5248" />
    <path d="M 38.29382 4.57849 L 35.66074 7.28184" />
    <path d="M 38.29382 4.57849 L 38.98898 4.33424 L 38.98898 -9.45128 A 20 3.48745 180 0 0 40.73996 -10.87829 L 40.73996 2.90722" />
    <path d="M 9.54047 13.76122 L 38.29382 4.57849 L 38.29382 -9.20703 L 35.66074 -12.41176" />
    <path d="M 29.20688 -11.8061 A 10 1.74372 180 0 0 25.7304 -12.38936 L 18.94824 -13.03508" />
    <path d="M 25.7304 -12.38936 L 27.22753 -15.79672" />
    <path d="M 40.73996 -10.87829 A 20 3.48745 180 0 0 40.42387 -11.49587" />
    <path d="M 25.7304 -10.69584 L 25.7304 -12.38936" />
    <path d="M -2.35213 -10.78887 A 1.65 0.7786 275.43861 0 0 -2.50851 -7.52158 L 11.58845 -6.17944" />
    <path d="M -2.19574 -10.80672 A 1.65 0.7786 275.43861 0 0 -2.35213 -10.78887" />
    <path d="M 45.04332 -9.57513 A 5 2.3594 95.43861 0 1 45.51721 -9.62923 L 40.73996 -10.08406" />
    <path d="M 45.51721 -9.62923 A 5 2.3594 95.43861 0 1 44.56942 0.32576 L 40.73996 -0.03884" />
    <path d="M 44.56942 0.32576 A 5 2.3594 95.43861 0 1 45.04332 -9.57513" />
    <path d="M -17.48105 15.1619 L -16.04339 17.65681" />
    <path d="M -45.32578 2.96738 L -24.18034 4.98059" />
    <path d="M -2.19574 -10.80672 L 18.94824 -8.79365" />
</svg>