<svg version="1.1" xmlns="http://www.w3.org/2000/svg" viewBox="-42.03678245253846 -19.492493324975843 84.07356490507692 38.984986649951686" fill="none" stroke="black" stroke-width="0.6%" vector-effect="non-scaling-stroke">
    <path d="M -30.79719 16.79894 L -30.79719 -2.8987 L -17.42363 -1.62353 A 20 3.46452 180 0 0 9.23469 -2.88166 L 9.62512 -2.99904 L 38.55787 -12.10436 L 39.2578 -12.34659 A 20 3.46452 180 0 0 41.03678 -13.775 L 41.03678 5.92265" />
    <path d="M -17.42363 18.07411 L -17.42363 -1.62353" />
    <path d="M -30.79719 16.79894 L -17.42363 18.07411 A 20 3.46452 180 0 0 9.23469 16.81598 L 9.62512 16.69861 L 38.55787 7.59328 L 39.2578 7.35105 A 20 3.46452 180 0 0 41.03678 5.92265" />
    <path d="M 9.23469 16.81598 L 9.23469 -2.88166" />
    <path d="M 9.62512 16.69861 L 9.62512 -2.99904" />
    <path d="M 38.55787 7.59328 L 38.55787 -12.10436" />
    <path d="M 39.2578 7.35105 L 39.2578 -12.34659" />
    <path d="M 41.03678 -13.775 A 20 3.46452 180 0 0 30.79719 -16.79894 L 17.42363 -18.07411 A 20 3.46452 180 0 0 -9.23469 -16.81598 L -9.62512 -16.69861 L -38.55787 -7.59328 L -39.2578 -7.35105 A 20 3.46452 180 0 0 -41.03678 -5.92265 L -41.03678 13.775 A 20 3.46452 180 0 0 -30.79719 16.79894" />
    <path d="M -41.03678 -5.92265 A 20 3.46452 180 0 0 -30.79719 -2.8987" />
    <path d="M -30.22218 -5.23784 L -30.22218 -6.60746 A 10 1.73226 180 0 0 -31.03678 -5.92265 A 10 1.73226 180 0 0 -26.05674 -4.42447 L -12.51776 -3.13353 A 10 1.73226 180 0 0 0.62114 -3.76194 L 0.86458 -3.83435 L 29.79732 -12.93968 L 30.22218 -13.09019 A 10 1.73226 180 0 0 31.03678 -13.775 A 10 1.73226 180 0 0 26.05674 -15.27317 L 12.51776 -16.56412 A 10 1.73226 180 0 0 -0.62114 -15.9357 L -0.86458 -15.86329 L -29.79732 -6.75796 L -30.22218 -6.60746" />
    <path d="M -29.79732 -5.08733 L -29.79732 -6.75796" />
    <path d="M -0.86458 -3.43794 L -0.86458 -15.86329" />
    <path d="M -0.62114 -3.48112 L -0.62114 -15.9357" />
    <path d="M 12.51776 -7.50169 L 12.51776 -16.56412" />
    <path d="M 26.05674 -11.76249 L 26.05674 -15.27317" />
</svg>