<svg version="1.1" xmlns="http://www.w3.org/2000/svg" viewBox="-47.29322798755945 -18.110497865220104 95.7553263879147 37.17761598132351" fill="none" stroke="black" stroke-width="0.6%" vector-effect="non-scaling-stroke">
    <path d="M -24.21229 14.57746 L -17.51567 15.221 L -17.51567 1.43879 A 20 3.51402 180 0 0 9.1231 0.15015 L 6.54936 -3.07401" />
    <path d="M -24.21229 0.79525 L -17.51567 1.43879 L -16.07608 -1.97699" />
    <path d="M -24.21229 14.57746 L -24.21229 0.79525" />
    <path d="M -22.7727 17.06834 L -24.21229 14.57746" />
    <path d="M -22.7727 17.06834 L -16.07608 17.71188" />
    <path d="M 9.1231 13.93236 L 9.1231 0.15015 L 9.51171 0.03091 L 6.90832 -3.18435" />
    <path d="M -17.51567 15.221 A 20 3.51402 180 0 0 9.1231 13.93236 L 6.54936 16.61486" />
    <path d="M -13.4383 6.4477 C -13.36 6.41 -13.28 6.38 -13.19709 6.3472 C -13.12 6.31 -13.04 6.28 -12.95438 6.24712 C -12.87 6.21 -12.79 6.18 -12.71013 6.14749 C -12.63 6.11 -12.55 6.08 -12.46432 6.04837 C -12.38 6.02 -12.3 5.98 -12.2169 5.94981 C -12.13 5.92 -12.05 5.88 -11.96786 5.85186 C -11.88 5.82 -11.8 5.79 -11.71717 5.7546 C -11.63 5.72 -11.55 5.69 -11.46481 5.65808 C -11.38 5.63 -11.3 5.59 -11.21076 5.56238 C -11.13 5.53 -11.04 5.5 -10.955 5.46758 C -10.87 5.44 -10.78 5.4 -10.69752 5.37375 C -10.61 5.34 -10.53 5.31 -10.43833 5.28099 C -10.35 5.25 -10.26 5.22 -10.1774 5.1894 C -10.09 5.16 -10 5.13 -9.91475 5.09907 C -9.83 5.07 -9.74 5.04 -9.65038 5.01011 C -9.56 4.98 -9.47 4.95 -9.3843 4.92265 C -9.29 4.89 -9.2 4.86 -9.10905 4.83443 C -9.06 4.82 -9.02 4.81 -8.97078 4.79101 C -8.92 4.78 -8.88 4.76 -8.83206 4.74806 C -8.79 4.73 -8.74 4.72 -8.69289 4.70562 C -8.65 4.69 -8.6 4.68 -8.55326 4.66368 C -8.51 4.65 -8.46 4.64 -8.41316 4.62227 C -8.37 4.61 -8.32 4.59 -8.27258 4.5814 C -8.23 4.57 -8.18 4.55 -8.13151 4.5411 C -8.08 4.53 -8.04 4.51 -7.98996 4.50139 C -7.94 4.49 -7.9 4.48 -7.84792 4.46228 C -7.8 4.45 -7.75 4.44 -7.70538 4.42381 C -7.52 4.37 -7.32 4.32 -7.13027 4.27673 C -6.36 4.09 -5.56 3.93 -4.75594 3.8336 C -4.38 3.79 -4 3.76 -3.62695 3.74115 C -3.57 3.74 -3.51 3.74 -3.4515 3.73545 C -3.39 3.73 -3.33 3.73 -3.27596 3.73234 C -3.22 3.73 -3.16 3.73 -3.10042 3.73196 C -3.04 3.73 -2.98 3.73 -2.92499 3.7344 C -2.87 3.74 -2.81 3.74 -2.74979 3.7398 C -2.69 3.74 -2.63 3.74 -2.57493 3.74826 C -2.52 3.75 -2.46 3.76 -2.40051 3.75992 C -2.34 3.76 -2.28 3.77 -2.22666 3.7749" />
    <path d="M -5.17946 13.5372 C -5.24 13.53 -5.31 13.52 -5.37117 13.51738 C -5.43 13.51 -5.5 13.5 -5.56228 13.49488 C -5.63 13.49 -5.69 13.48 -5.75276 13.46981 C -5.82 13.46 -5.88 13.45 -5.94258 13.44226 C -6.01 13.43 -6.07 13.42 -6.13169 13.41234 C -6.19 13.4 -6.26 13.39 -6.32009 13.38013 C -6.38 13.37 -6.45 13.36 -6.50773 13.34573 C -6.57 13.33 -6.63 13.32 -6.6946 13.30922 C -6.76 13.3 -6.82 13.28 -6.88068 13.27068 C -6.94 13.26 -7 13.24 -7.06595 13.23018 C -7.13 13.22 -7.19 13.2 -7.2504 13.18782 C -7.31 13.17 -7.37 13.16 -7.43402 13.14364 C -7.5 13.13 -7.56 13.11 -7.6168 13.09773 C -7.68 13.08 -7.74 13.07 -7.79874 13.05015 C -7.86 13.03 -7.92 13.02 -7.97983 13.00097 C -8.04 12.98 -8.1 12.97 -8.16008 12.95022 C -8.22 12.93 -8.28 12.92 -8.33949 12.89799 C -8.4 12.88 -8.46 12.86 -8.51806 12.84431 C -8.58 12.83 -8.64 12.81 -8.69581 12.78923 C -8.75 12.77 -8.81 12.75 -8.87274 12.73281 C -8.93 12.71 -8.99 12.69 -9.04886 12.67508 C -9.11 12.66 -9.17 12.64 -9.2242 12.61609 C -9.28 12.6 -9.34 12.58 -9.39877 12.55586 C -9.46 12.54 -9.51 12.52 -9.57259 12.49445 C -9.63 12.47 -9.69 12.45 -9.74568 12.43187 C -9.8 12.41 -9.86 12.39 -9.91807 12.36815 C -9.98 12.35 -10.03 12.33 -10.08979 12.30333 C -10.15 12.28 -10.2 12.26 -10.26086 12.23742 C -10.49 12.15 -10.71 12.06 -10.93931 11.96327 C -11.8 11.6 -12.63 11.21 -13.4383 10.79054" />
    <path d="M -22.7727 -2.62053 L -24.21229 0.79525" />
    <path d="M -22.7727 -2.62053 L -16.07608 -1.97699" />
    <path d="M -20.85222 -3.23746 L -22.7727 -2.62053" />
    <path d="M 36.26323 7.05539 A 17 2.98692 180 0 0 37.48369 6.3643 L 40.43552 3.50504 A 20 3.51402 180 0 0 40.75664 2.87787" />
    <path d="M 35.61721 7.28278 L 36.31339 7.03676" />
    <path d="M 6.87968 16.51351 L 35.67147 7.26451" />
    <path d="M 6.51972 16.62376 L 6.90832 16.50452" />
    <path d="M -16.0936 17.71021 A 17 2.98692 180 0 0 6.54936 16.61486" />
    <path d="M -16.0936 -1.97866 A 17 2.98692 180 0 0 6.54936 -3.07401" />
    <path d="M 9.1231 13.93236 L 9.51171 13.81312 L 6.90832 16.50452" />
    <path d="M 9.51171 13.81312 L 9.51171 0.03091 L 38.3035 -9.21809 L 38.99968 -9.46412 L 36.31339 -12.65211" />
    <path d="M -13.4383 6.4477 A 5 2.36199 275.48925 0 0 -13.4383 10.79054" />
    <path d="M 1.87508 4.26989 A 5 2.36199 95.48925 0 1 2.35338 4.21504 L -2.22666 3.7749" />
    <path d="M 2.35338 4.21504 A 5 2.36199 95.48925 0 1 1.39679 14.16918 L -5.17946 13.5372" />
    <path d="M 1.39679 14.16918 A 5 2.36199 95.48925 0 1 1.87508 4.26989" />
    <path d="M -20.85222 -3.23746 L -14.07277 -2.58596" />
    <path d="M -14.01258 -2.58033 A 13 2.28411 180 0 0 3.05529 -3.41698" />
    <path d="M 3.0924 -3.42794 L 3.33471 -3.5015" />
    <path d="M 3.3703 -3.51261 L 32.1621 -12.76161" />
    <path d="M 32.22864 -12.78427 L 32.65117 -12.93713" />
    <path d="M 32.71139 -12.96032 A 13 2.28411 180 0 0 33.54791 -13.45001 A 13 2.28411 180 0 0 27.25244 -15.8362" />
    <path d="M 27.193 -15.84206 L 20.41355 -16.49357" />
    <path d="M 22.33403 -17.1105 L 20.41355 -16.49357" />
    <path d="M 29.03064 -16.46695 L 22.33403 -17.1105" />
    <path d="M 36.26323 -12.63348 A 17 2.98692 180 0 0 37.48369 -14.39077 L 40.43552 -11.53151" />
    <path d="M 37.48369 -14.39077 A 17 2.98692 180 0 0 29.0132 -16.46864" />
    <path d="M 35.61721 -12.40609 L 36.31339 -12.65211" />
    <path d="M 6.87968 -3.17536 L 35.67147 -12.42436" />
    <path d="M 6.51972 -3.06511 L 6.90832 -3.18435" />
    <path d="M -45.50145 3.01491 A 1.65 0.77946 275.48925 0 0 -45.65929 6.28167 L -24.21229 8.34272" />
    <path d="M -45.34362 2.9968 A 1.65 0.77946 275.48925 0 0 -45.50145 3.01491" />
    <path d="M 18.97396 -13.07779 L 18.97396 -8.52509" />
    <path d="M 18.97396 -13.07779 L 20.41355 -16.49357" />
    <path d="M 38.99968 4.3181 L 36.31339 7.03676" />
    <path d="M 38.99968 4.3181 A 20 3.51402 180 0 0 40.43552 3.50504" />
    <path d="M 38.3035 4.56412 L 35.67147 7.26451" />
    <path d="M 38.3035 4.56412 L 38.99968 4.3181 L 38.99968 -9.46412 A 20 3.51402 180 0 0 40.75664 -10.90434 L 40.75664 2.87787" />
    <path d="M 9.51171 13.81312 L 38.3035 4.56412 L 38.3035 -9.21809 L 35.67147 -12.42436" />
    <path d="M 29.25934 -11.82914 A 10 1.75701 180 0 0 25.75341 -12.42628 L 18.97396 -13.07779" />
    <path d="M 25.75341 -12.42628 L 27.25244 -15.8362" />
    <path d="M 40.75664 -10.90434 A 20 3.51402 180 0 0 40.43552 -11.53151" />
    <path d="M 25.75341 -10.7029 L 25.75341 -12.42628" />
    <path d="M -2.31376 -10.8586 A 1.65 0.77946 275.48925 0 0 -2.47159 -7.59183 L 11.7995 -6.22038" />
    <path d="M -2.15592 -10.8767 A 1.65 0.77946 275.48925 0 0 -2.31376 -10.8586" />
    <path d="M 45.06278 -9.60361 A 5 2.36199 95.48925 0 1 45.54108 -9.65846 L 40.75664 -10.11825" />
    <path d="M 45.54108 -9.65846 A 5 2.36199 95.48925 0 1 44.58449 0.29568 L 40.75664 -0.07218" />
    <path d="M 44.58449 0.29568 A 5 2.36199 95.48925 0 1 45.06278 -9.60361" />
    <path d="M -17.51567 15.221 L -16.07608 17.71188" />
    <path d="M -45.34362 2.9968 L -24.21229 5.02752" />
    <path d="M -2.15592 -10.8767 L 18.97396 -8.84612" />
</svg>