<svg version="1.1" xmlns="http://www.w3.org/2000/svg" viewBox="-27.644180976217093 -20.230949382652465 50.66094979726123 39.550853594439104" fill="none" stroke="black" stroke-width="0.6%" vector-effect="non-scaling-stroke">
    <path d="M -26.64418 15.42567 L -19.29044 15.81903 L -19.29044 2.08041 A 20 3.84667 180 0 0 4.98477 -0.45759 L 2.1281 -3.5778" />
    <path d="M -26.64418 1.68706 L -19.29044 2.08041 L -18.48661 -1.41948" />
    <path d="M -26.64418 15.42567 L -26.64418 1.68706" />
    <path d="M -25.84036 17.81376 L -26.64418 15.42567" />
    <path d="M -25.84036 17.81376 L -18.48661 18.20711" />
    <path d="M -19.29044 15.81903 A 20 3.84667 180 0 0 4.98477 13.28102 L 2.1281 16.04879" />
    <path d="M 4.98477 13.28102 L 4.98477 -0.45759 L 5.209 -0.60169 L 2.33496 -3.71112" />
    <path d="M -25.84036 -1.81283 L -26.64418 1.68706" />
    <path d="M -25.84036 -1.81283 L -18.48661 -1.41948" />
    <path d="M -24.76802 -2.55443 L -25.84036 -1.81283" />
    <path d="M 18.36595 4.83011 L 18.72573 4.53742" />
    <path d="M 2.31869 15.92631 L 18.39517 4.80826" />
    <path d="M 2.11073 16.05957 L 2.33496 15.91547" />
    <path d="M -18.50583 18.2061 A 17 3.26967 180 0 0 2.1281 16.04879" />
    <path d="M -18.50583 -1.42049 A 17 3.26967 180 0 0 2.1281 -3.5778" />
    <path d="M 4.98477 13.28102 L 5.209 13.13693 L 2.33496 15.91547" />
    <path d="M 5.209 13.13693 L 5.209 -0.60169 L 21.28547 -11.71974 L 21.64525 -12.01243 L 18.72573 -15.08917" />
    <path d="M -24.76802 -2.55443 L -17.32331 -2.15621" />
    <path d="M -17.25742 -2.15284 A 13 2.50034 180 0 0 -1.71815 -3.79071" />
    <path d="M -1.69618 -3.80401 L -1.55534 -3.89302" />
    <path d="M -1.53505 -3.90642 L 14.54143 -15.02447" />
    <path d="M 14.57692 -15.05153 L 14.7907 -15.23295" />
    <path d="M 14.81934 -15.26031 A 13 2.50034 180 0 0 5.78373 -18.08747" />
    <path d="M 5.71825 -18.09113 L -1.72645 -18.48935" />
    <path d="M -0.65411 -19.23095 L -1.72645 -18.48935" />
    <path d="M 6.69963 -18.8376 L -0.65411 -19.23095" />
    <path d="M 18.70098 -15.06712 A 17 3.26967 180 0 0 18.68706 -16.33524 L 21.62887 -13.50434" />
    <path d="M 18.68706 -16.33524 A 17 3.26967 180 0 0 6.68045 -18.83864" />
    <path d="M 18.36595 -14.79648 L 18.72573 -15.08917" />
    <path d="M 2.31869 -3.70028 L 18.39517 -14.81833" />
    <path d="M 2.11073 -3.56702 L 2.33496 -3.71112" />
    <path d="M -2.53028 -14.98946 L -1.72645 -18.48935" />
    <path d="M -2.53028 -14.98946 L -2.53028 -3.4212" />
    <path d="M 21.64525 1.72618 L 18.72573 4.53742" />
    <path d="M 21.64525 1.72618 A 20 3.84667 180 0 0 22.01677 0.98819" />
    <path d="M 21.28547 2.01888 L 18.39517 4.80826" />
    <path d="M 21.28547 2.01888 L 21.64525 1.72618 L 21.64525 -12.01243 A 20 3.84667 180 0 0 22.01677 -12.75042 L 22.01677 0.98819" />
    <path d="M 5.209 13.13693 L 21.28547 2.01888 L 21.28547 -11.71974 L 18.39517 -14.81833" />
    <path d="M 11.81248 -13.1372 A 10 1.92333 180 0 0 4.91443 -14.59124 L -2.53028 -14.98946" />
    <path d="M 4.91443 -14.59124 L 5.78373 -18.08747" />
    <path d="M 22.01677 -12.75042 A 20 3.84667 180 0 0 21.62887 -13.50434" />
    <path d="M 4.91443 -8.3667 L 4.91443 -14.59124" />
    <path d="M -19.29044 15.81903 L -18.48661 18.20711" />
</svg>